<?xml version="1.0" standalone="no"?>
<!DOCTYPE svg PUBLIC "-//W3C//DTD SVG 20010904//EN"
 "http://www.w3.org/TR/2001/REC-SVG-20010904/DTD/svg10.dtd">
<svg version="1.0" xmlns="http://www.w3.org/2000/svg"
 width="1038.000000pt" height="1038.000000pt" viewBox="0 0 1038.000000 1038.000000"
 preserveAspectRatio="xMidYMid meet">
<metadata>
Created by potrace 1.11, written by Peter Selinger 2001-2013
</metadata>
<g transform="translate(0.000000,1038.000000) scale(0.100000,-0.100000)"
fill="#000000" stroke="none">
<path d="M5507 9418 l-958 -958 961 -960 960 -961 0 642 0 641 388 -4 c371 -4
390 -5 449 -27 206 -75 354 -257 423 -520 20 -73 20 -121 20 -2092 l0 -2017
-37 -23 c-96 -57 -228 -173 -316 -277 -54 -63 -140 -205 -180 -294 -21 -49
-53 -144 -70 -211 -27 -109 -30 -139 -31 -277 -1 -198 14 -295 70 -450 129
-359 412 -643 774 -775 142 -52 277 -73 450 -70 99 1 183 8 233 19 453 98 817
422 961 857 19 57 37 122 41 144 3 23 8 52 11 65 3 14 7 88 9 165 5 200 -25
352 -104 535 -96 220 -293 448 -493 569 l-38 23 -1 2071 c0 1140 -2 2090 -3
2112 -37 501 -194 882 -486 1175 -130 130 -186 176 -325 260 -187 114 -397
199 -630 254 -87 21 -167 37 -200 41 -5 0 -39 4 -75 9 -36 4 -81 9 -100 11
-19 2 -194 4 -387 4 l-353 1 -2 638 -3 638 -958 -958z m3044 -6738 c76 -20
205 -90 264 -142 143 -128 218 -306 211 -503 -6 -170 -64 -303 -186 -425 -133
-133 -292 -193 -485 -185 -161 6 -297 67 -415 185 -229 227 -251 583 -54 841
94 122 251 217 404 242 45 8 215 -1 261 -13z"/>
<path d="M1880 9603 c-127 -15 -280 -51 -355 -83 -188 -81 -304 -158 -436
-289 -192 -191 -320 -440 -365 -709 -13 -75 -11 -313 2 -397 19 -117 73 -277
131 -387 94 -178 258 -361 416 -464 l76 -49 2 -2070 c0 -1138 2 -2088 3 -2110
3 -40 14 -149 21 -195 13 -91 19 -126 42 -215 77 -312 240 -599 458 -808 265
-255 703 -456 1115 -513 25 -3 54 -8 65 -10 53 -12 199 -16 512 -17 l343 0 2
-639 3 -638 958 958 957 957 -957 958 c-526 526 -958 957 -960 957 -2 0 -3
-286 -3 -635 l0 -635 -22 -1 c-105 -4 -674 0 -713 5 -76 11 -95 16 -169 52
-174 86 -285 239 -364 505 -4 13 -8 940 -9 2059 l-3 2035 78 50 c96 62 272
236 339 335 158 236 226 471 218 755 -4 121 -11 177 -39 294 -47 199 -170 407
-342 578 -197 196 -453 323 -724 359 -58 7 -237 12 -280 7z m270 -682 c89 -25
208 -92 274 -155 144 -138 207 -290 201 -490 -8 -271 -185 -503 -448 -589 -95
-30 -278 -30 -372 1 -172 57 -309 172 -383 324 -54 110 -72 190 -68 308 4 104
15 155 52 237 90 195 246 322 454 369 66 14 228 12 290 -5z"/>
</g>
</svg>
